# xmcd CD database file
#
# Track frame offsets:
#	150
#	15600
#	30625
#	46875
#	63525
#	79475
#	93750
#	115625
#	147625
#	165325
#	179575
#
# Disc length: 2591 seconds
#
# Revision: 0
# Processed by: cddbd v1.4PL0 Copyright (c) Steve Scherf et al.
# Submitted via: Feurio! 1.62 - http://www.feurio.com
#
DISCID=8c0a1d0b
DTITLE=Mick Clarke - West Coast Connection
DYEAR=1987
DGENRE=blues
TTITLE0=Hard Times
TTITLE1=Madison Blues
TTITLE2=Ain't That The Truth
TTITLE3=Mona
TTITLE4=You Don't Have To Cry
TTITLE5=Guitar Boogie
TTITLE6=Walking Blues
TTITLE7=Mean Old World
TTITLE8=Nothin' But A Fool
TTITLE9=Shake For Me
TTITLE10=One Little Problem
EXTD=YEAR:1987 BRAMBUS RECORDS
EXTT0=
EXTT1=
EXTT2=
EXTT3=
EXTT4=
EXTT5=
EXTT6=
EXTT7=
EXTT8=
EXTT9=
EXTT10=
PLAYORDER=
